<?xml version="1.0" encoding="UTF-8"?>
<!DOCTYPE svg PUBLIC "-//W3C//DTD SVG 1.1//EN" "http://www.w3.org/Graphics/SVG/1.1/DTD/svg11.dtd">
<!-- Creator: CorelDRAW -->
<?xml-stylesheet href="Logo_Name_Siredam.css" type="text/css"?>
<svg xmlns="http://www.w3.org/2000/svg" xml:space="preserve" width="74.1458mm" height="20.2329mm" version="1.1" style="shape-rendering:geometricPrecision; text-rendering:geometricPrecision; image-rendering:optimizeQuality; fill-rule:evenodd; clip-rule:evenodd"
viewBox="0 0 7685.42 2097.2"
 xmlns:xlink="http://www.w3.org/1999/xlink"
 xmlns:xodm="http://www.corel.com/coreldraw/odm/2003">
 <g id="Camada_x0020_1">
  <metadata id="CorelCorpID_0Corel-Layer"/>
  <path class="fil0" d="M5187.56 547.48c-242.52,0 -415.11,302.75 -459.4,591.6 -27.97,93.02 -178.55,584.84 -314.32,584.84 -95.03,0 -149.34,-226.23 -171.92,-513.57 169.62,-312.17 300.86,-714.88 300.86,-961.47 0,-144.77 -40.71,-248.88 -151.6,-248.88 -208.13,0 -300.9,402.71 -300.9,823.51 0,165.14 13.61,332.57 40.75,479.6 -106.33,171.92 -219.44,289.56 -323.48,289.56 -81.45,0 -113.12,-108.56 -113.12,-248.82 0,-269.24 117.6,-658.37 257.9,-658.37 54.27,0 74.63,43.01 67.84,122.15 0,11.31 13.58,15.87 22.62,15.87 9.05,0 20.36,-6.78 20.36,-20.35 6.79,-92.77 -27.11,-169.7 -133.47,-169.7 -191.41,0 -324.91,252.77 -359.74,505.58 -25.75,89.41 -142.78,519.29 -420.77,519.29 -156.08,0 -217.14,-176.47 -217.14,-384.66 0,-20.35 0,-38.44 2.22,-58.79 237.58,-67.89 393.63,-325.78 393.63,-504.49 0,-99.55 -49.75,-174.21 -162.87,-174.21 -213.69,0 -350.7,306.81 -365.21,605.87 -32.61,110.77 -125.21,450.62 -304.45,450.62 -79.15,0 -113.12,-74.63 -113.12,-174.15 0,-153.86 67.89,-500.03 67.89,-628.94 0,-233.01 -226.23,-239.8 -393.67,-285.07 0,-4.52 0,-9.05 0,-13.57 0,-169.7 -40.7,-280.52 -144.81,-280.52 -67.84,0 -106.33,54.24 -106.33,119.91 0,128.91 90.53,176.44 196.87,205.84 -4.56,160.34 -40.56,376.96 -101.43,593.78l-0.15 0.41 -0.11 0.41 -0.11 0.41 -0.19 0.63 -0.19 0.64 -0.16 0.6c-14.88,53.15 -171.43,590.84 -343.35,590.84 -99.54,0 -133.46,-122.17 -133.46,-285.04 0,-165.21 33.93,-375.58 70.11,-545.27 11.34,-54.31 -31.67,-74.67 -65.59,-74.67 -38.49,0 -83.71,13.57 -99.55,124.47 -18.09,126.68 -29.44,248.81 -29.44,359.7 0,98.87 8.71,188.39 28.84,262.31 -47.19,100.82 -194.08,114.05 -307.57,105.76l-10.03 -0.83c8.33,-33.2 12.78,-67.54 12.78,-102.55 0,-262.39 -287.29,-312.17 -533.92,-380.06 -244.29,-67.88 -334.83,-165.13 -334.83,-371 0,-366.5 298.64,-744.32 644.81,-744.32 210.36,0 282.78,124.46 282.78,269.2 0,194.58 -128.99,429.89 -217.19,461.56 0,24.88 15.84,42.96 42.97,42.96 90.5,0 242.06,-260.19 242.06,-488.65 0,-178.74 -92.72,-337.12 -373.27,-337.12 -457.03,0 -775.98,384.57 -775.98,771.46 0,282.81 196.83,380.1 463.81,457.03 237.51,67.85 395.85,135.73 395.85,330.27 0,22.05 -1.54,43.83 -4.45,65.17 -189.86,-42.45 -401.8,-113.87 -553.67,-79.76 -126.11,23.52 -204.26,159.52 -204.26,281.53 0,126.76 83.72,251.15 296.34,251.15 275.24,0 531.32,-168.87 606.63,-394.23 118.62,14.28 233.51,5.88 326.01,-84.96l13.38 -13.57c38.14,106.25 105.47,171.5 212.28,171.5 231.55,0 384.17,-582.65 399.78,-642.24l0.03 -0.08 0.2 -0.75 0.22 -0.83 0.23 -0.83 0.16 -0.53 0 -0.11 0.07 -0.3c54.13,-207.8 94.8,-413.35 101.58,-578.25 126.68,31.7 255.67,61.1 255.67,199.13 0,171.92 -58.87,400.41 -58.87,574.59 0,176.48 56.57,319 237.58,319 163.63,0 261.06,-190.24 315.45,-343.54 23.75,224.35 125.94,409.16 331.59,409.16 231.51,0 360.15,-216.21 427.33,-386.24 12.66,178.02 86.54,320.62 240.06,320.62 99.59,0 205.92,-92.73 309.95,-233.02 6.78,-9.05 15.87,-20.36 24.88,-20.36 9.05,0 13.57,9.05 15.87,22.62 52.01,208.15 140.25,361.97 260.16,361.97 125.24,0 237.73,-250.69 305.04,-441 12.64,175.45 88.54,309.8 244.67,309.8 126.68,0 221.7,-124.42 287.33,-264.72 6.79,-15.8 15.84,-27.14 27.15,-27.14 11.3,0 18.09,15.87 18.09,36.22 6.79,246.59 72.37,386.84 221.71,386.84 221.48,0 372.18,-523.18 400.64,-628.68 4.89,215.68 26.01,483.9 117.41,483.9 15.87,0 58.84,-13.58 58.84,-40.71 0,-348.43 147.03,-1230.74 411.75,-1230.74 81.46,0 110.86,90.53 110.86,224 0,214.89 -74.67,542.93 -122.2,796.3 -6.79,36.22 36.22,83.75 110.89,83.75 15.8,0 27.14,-6.79 29.36,-13.57 79.23,-228.53 262.46,-828.04 416.32,-828.04 42.96,0 58.79,40.75 58.79,106.34 0,178.7 -74.66,570.14 -74.66,809.94 0,176.44 58.83,291.81 205.92,291.81 228.45,0 393.62,-538.44 443.38,-699.05 2.3,-9.09 -9.05,-11.35 -22.58,-11.35 -13.57,0 -27.18,2.26 -29.44,11.35 -49.79,160.61 -212.66,647.03 -384.58,647.03 -47.52,0 -76.93,-63.36 -76.93,-162.91 0,-210.39 67.85,-599.51 67.85,-828.03 0,-135.73 -38.44,-223.94 -160.61,-223.94 -126.68,0 -239.8,190.02 -323.56,395.85 -11.27,29.45 -20.32,49.79 -31.66,49.79 -11.27,0 -13.57,-15.83 -6.79,-54.27 13.61,-90.47 20.4,-176.48 20.4,-255.67 0,-226.23 -58.84,-391.37 -226.23,-391.37 -212.66,0 -348.44,407.24 -416.28,787.3 -4.53,24.88 -11.31,65.58 -27.15,65.58 -15.83,0 -22.62,-27.14 -22.62,-70.1 0,-156.09 24.89,-255.64 24.89,-273.73 0,-33.93 -20.4,-52.02 -61.1,-52.02 -56.54,0 -76.9,52.02 -85.98,104.04 -11.24,58.65 -24.8,162.34 -51.78,261.63l-0.11 0.41 -0.11 0.41c-11.31,40.7 -171.92,592.72 -346.14,592.72 -74.67,0 -101.81,-74.67 -101.81,-217.23 0,-171.92 49.79,-511.27 49.79,-522.53 0,-54.31 -31.67,-74.67 -65.62,-74.67 -38.49,0 -72.41,13.57 -97.29,124.38 -18.09,81.46 -128.91,558.8 -341.61,558.8 -81.42,0 -117.64,-99.55 -117.64,-233.02 0,-294.12 165.13,-760.15 359.7,-760.15 101.81,0 122.21,106.33 122.21,185.52 0,40.71 -6.79,70.15 -6.79,76.93 0,11.31 13.57,15.87 22.58,15.87 9.09,0 18.13,-6.78 20.36,-20.39 2.3,-11.31 9.08,-47.49 9.08,-90.5 0,-92.76 -29.44,-219.45 -190.01,-219.45zm-4338.07 1129.73c-42.93,204.14 -219.11,363.4 -471.65,363.4 -162.91,0 -228.5,-85.94 -228.5,-178.7 0,-91.6 62.69,-191.71 154.16,-229.09 13.69,-4.64 27.26,-8.63 40.67,-11.95 197.14,-36.26 314.86,18.62 505.32,56.35zm2351.7 -1082.2c40.75,0 58.87,38.44 58.87,95.03 0,142.47 -117.68,395.88 -323.56,472.81 27.15,-278.25 140.26,-567.84 264.69,-567.84zm1027.13 273.73c0,-411.72 58.83,-816.73 183.23,-816.73 54.31,0 76.96,70.18 76.96,169.7 0,219.44 -108.63,590.46 -253.41,891.35 -4.52,-79.19 -6.78,-162.87 -6.78,-244.32zm-2348.34 -531.63c0,-33.96 15.86,-58.87 40.75,-58.87 54.27,0 79.15,81.46 81.45,210.45 -72.41,-27.15 -122.2,-67.89 -122.2,-151.57zm-291.82 11.31c0,-43.01 -24.88,-74.66 -65.58,-74.66 -79.2,0 -135.77,58.79 -135.77,115.38 0,45.22 40.75,70.11 81.46,70.11 65.58,0 119.9,-40.71 119.9,-110.83z"/>
 </g>
</svg>
