<?xml version="1.0" encoding="UTF-8"?>
<svg id="Camada_1" xmlns="http://www.w3.org/2000/svg" xmlns:xodm="http://www.corel.com/coreldraw/odm/2003" version="1.1" viewBox="0 0 259.7 80.49">
  <!-- Generator: Adobe Illustrator 29.5.1, SVG Export Plug-In . SVG Version: 2.1.0 Build 141)  -->
  <defs>
    <style>
      .st0 {
        fill: #fff;
      }

      .st0, .st1, .st2, .st3, .st4 {
        fill-rule: evenodd;
      }

      .st1 {
        fill: #b8d9ff;
      }

      .st2 {
        fill: #0fd;
      }

      .st3 {
        fill: #074160;
      }

      .st4 {
        fill: #faabd0;
      }
    </style>
  </defs>
  <path class="st4" d="M58.82,59.81c-.48,4.53-2.02,5.98-4.89,10.5-2.53,3.99-4.78,10.26-6.96,10.18-1.28-.05-2-4.07-4.19-7.29-2.79-4.12-10.42-9.92-10.1-14.5.13-1.83,1.94-3.84,5.71-5.43,1.2-.51,2.22-.96,3.11-1.66,1.92-1.51,3.65-3.4,4.24-5.71.47-1.84,1.59-5.45,1.71-7.63.11-2.07-.27-3.67-1.21-4.23-.96-.57-2.23.37-3.17,1.64-1.14,1.54-3.13,1.75-4.81,1.63-1.66-.12-2.93.09-4.12-1.56-1.13-1.57-4.41-2.58-5.34-1.62-.5.51-.62,1.61.13,3.47,1.27,3.14,2.6,2.2,1.34,5.96-.44,1.32-.7,3.63.41,5.18,1.85,2.58,5.19,3.27,9.4,3.3.16,0,.77-.26.93-.26,7.88.01,17.04-1.09,17.8,8.03h0Z"/>
  <path class="st1" d="M33.76,30.73c-5.85-9.23-3.68-13.36-11.44-13.47.89-5.53.37-10.39-6.59-7.06-1.36.75-4.15,2.19-3.09,4.54-.39.71-.85,1.46-1.43,2.24-1.04,1.4-13.45,3.31-5.66,8.55-2.35,2.38-.34,3.73.93,2.71,2.77-2.22,1.98.03,4.4-.04,1.12-.03,2.66-.52,4.57-1.2,4.76-1.69,7.37-1.45,6.01-.64-3.9,2.32-5.49,5.9-6.53,10.75-1.35,6.3,2.96,20.23,7.99,6.58.63-1.7.39-7.43,3.33-9.45,1.96-1.35,2.18.81,7.51-3.51h0Z"/>
  <path class="st2" d="M81.47,25.43c-3.12-10.85-13.28-19.18-24.1-19.25-6.38-.04-10.31,3.23-13.26,6.64-1.29,1.49-1.62,3.04-2.81,4.34-1.12,1.22-3.08,2.2-4.44,3.03-6.15,3.76-.66,12.82,5.16,8.6,5.34-3.87,12.98-6.66,13.73-3.88.39,1.45,2.54,3.32-3.76,11.54-4.68,6.12.27,11.52,6.38,12.21,5.55,2.28,26.86-10.14,23.1-23.24Z"/>
  <path class="st3" d="M52.62,44.4h0c1.33,1.36,5.6,3.77,7.22,3.89.25.02.5-.02.72-.16.18-1.2.17-2.24.17-3.16,0-1.31-.01-2.41.49-3.44-.46-1.62.74-5.03,5.76-11.5,3.55-4.58,4.37-7.97,4.02-10.47-.33-2.39-1.74-3.97-2.83-5-.69,2.01-1.64,4.89-2.92,6.5-1.17,1.48-2.38,1.55-3.34-1.9-.06-.02-.11-.07-.13-.14-.87-2.62-2.11-5.08-3.19-7.22-1.1-2.17-2.03-4.02-2.25-5.41-.48-.01-.92-.03-1.34-.06-.56,1.5-2.97,1.4-4.25,1.27-.2.39-.49.77-.86,1.11.63.98,1.25,1.97,1.73,3.03,1.05-.02,2.06.34,2.93.89,1.55.99,3.65,3.23,3.74,5.27.04.96-.21,1.97-.75,2.92-.53.95-1.33,1.83-2.39,2.54-2.68,1.79-5.05,1.03-7.68,2.35h0c-1,.5-1.99,1.18-2.97,1.85-3.06,2.09-6.04,4.13-9.19.93-2.12-2.15-1.96-5.51.18-7.62.67-.66,1.57-1.29,2.76-1.83,1.96-.91,3.2-2.06,3.78-3.33.51-1.09.53-2.27.13-3.44l-.05-.15c-1.2.02-2.04-1.02-1.28-2.13-.34-.4-.73-.8-1.16-1.18-7.17-6.3-20.97-6.31-28.5-.57-3.99,3.04-7.4,7.02-7.44,13.34,1.02-.23,2.55.06,3.45.7.29-.4.27-.64.09-.78-.37-.29-1.25-.38-1.98-.46-.7-.07-1.28-.13-1.38-.43-.14-.41,1.09-1.09,5.48-2.63,1.34-.47,2.2-1.72,2.89-2.91l.17-.33c-.06-.08-.11-.17-.15-.25-.61-1.17-.21-2.64,2.45-4.04.15-.08.3-.16.45-.23,1.97-2.28,5.06-3.36,11.58-.12,4.3,2.13,4.59,5.19,3.28,7.83-.34.69-.8,1.36-1.33,1.97.38.67.7,1.42,1.02,2.24,1.52,3.94,2.23,6.88,5.47,9.96,5.6,4.93,11.84-1.17,16.06-5.29,1.45-1.42,2.67-2.61,3.6-3.07.02-.01.04-.03.06-.03.77-.36,1.31-.23,1.59.65.23.72.24,2,0,4.05v.04s-.01.06-.01.06v.1c-.3,2.37-1.64,4.56-2.91,6.65-.78,1.27-1.69,2.71-2.15,4.14-.58,2.06-.32,3.5,1.18,5.02h0ZM80.12,30.32c.61-1.16,1.09-2.29,1.43-3.37-.18-3.23-1.95-6.47-4.48-9.4-4.4-5.07-12.11-10.42-19.15-11.05,1.33,3.27,2.75,6.46,3.71,9.87.16.49.3.97.39,1.43.43,2.01.9,3.06,1.4,3.45,1.36-1.07,2.75-5.17,3.33-6.87.12-.35.22-.73.3-1.09-.34-.51-.46-.94-.45-1.26.01-.35.18-.64.51-.77.15-.06.32-.07.49-.02,1.05.33.9,2.09.71,2.83,1.63,1.52,2.8,3.13,3.12,5.41.36,2.6-.47,6.1-4.1,10.8-4.49,5.79-5.89,8.99-5.8,10.61.22-.37.49-.69.83-.94,1.02-.93,5.18-1.15,5.17.36,0,.65-1.04,1.5-2.28,2-.98.4-2.09.6-2.91.34-.17.72-.26,1.51-.34,2.26-.11.99-.21,1.92-.48,2.62-.48,1.24-1.59,1.3-2.75,1.19-4.13-.39-10.64-4.65-8.59-9.95.48-1.23,1.24-2.48,2.03-3.77,1.25-2.05,2.56-4.19,2.84-6.47.17-1.4.23-2.45.18-3.19-.04-.58-.13-.97-.28-1.18-.82.45-1.98,1.59-3.37,2.95-3.83,3.74-9.26,9.03-15.16,6.85-.94-.35-1.88-.93-2.79-1.8-2.62-2.48-3.75-5.62-4.75-8.37-.38-1.03-.73-2.01-1.14-2.88-.43.4-.89.76-1.35,1.07-1.34.91-3.38,1.69-5.02,1.25-.3-.08-.56-.23-.77-.46-.2-.23-.34-.52-.4-.9-.12-.69.03-1.48.23-2.15.1-.33.32-1.08.54-2.04-2.21.05-4.98.11-7.03-.35-.71-.16-1.2-.36-1.53-.58-.19-.13-.33-.28-.41-.43-.66.94-1.43,1.7-2.47,2.07-4.07,1.43-5.26,1.93-5.21,2.07.01.03.46.08,1.01.14.79.08,1.73.18,2.2.55.39.31.48.75-.02,1.41.06.06.11.12.16.19.66.94-.18,1.76-.92,2.29,0,.27.05.78-.1.99-.24.34-.72.03-.99-.13-.75.67-1.05,1.19-1.08,1.57-.02.2.05.36.15.48.1.13.25.23.4.3.65-.62,1.15-.97,1.56-1.13.8-.32,2.03-.14,2.75.36.34.23.72.49,1.29.59.53-.08,1.06-.25,1.55-.46,3.93-1.62,5.56-1.82,6.88-1.98.63-.08,2.07-.13,2.83-.34h0s0,0,0,0l.06-.02h0s.07-.02.07-.02c.12-.04.24.03.28.14.03.1-.01.2-.09.25-8.66,6.32-8,12.91-6.1,22.8l.22.16c1.61,1.15,3.89,2.77,4.45,4.2.22.47.27,1.01-.29,1.24-.34.14-.87.1-1.45-.13-1.19-.48-2.64-1.76-3.05-3.81l-.08-.38-.66-.46c-3.5-2.33-10.19-8.66-11.8-12.66C.32,29.6-1.57,21.32,1.72,14.01,5.34,5.98,14.42,1,23.26,1.15c6.05-.12,13.86,3.84,17.83,8.49.6-.75,1.55-1.53,2.76-2.06.96-.42,2.09-.69,3.34-.67-.42-.68-.94-1.44-1.27-2.14-.43-.91-.57-1.78-.47-2.48.11-.82.58-1.59,1.46-1.73.34-.05.72,0,1.13.16.55.15,1.19.63,1.83,1.53-.13-.74-.11-2.06.86-2.22.68-.11,1.66.72,2.05,1.19.48.54,1.03,1.29,1.62,2.3.35.6.62,1.23.7,1.81.03.2.03.39.01.57.37.03.76.05,1.19.06-.06-.84.1-1.53.59-2.02,2.95-2.94,14.69,1.05,17.95,3.54,5.66,4.31,9.1,12.02,7.37,18.85,2.89,7.18,1.59,14.62-8.28,19.55-4.15,2.07-14.41,4.72-17.8,7.93,4.12,3.08,2.91,8.16.91,12h0c-.07.13-.13.25-.2.38h0c-.1.19-.2.38-.31.56h0c-.56,1-1.16,1.98-1.76,2.95-.66,1.08-1.36,2.11-1.87,3.16-1.34,2.74.65,3.67,2.85,3.36,2.95-.22,8.72-1.13,13.35-3.03,1.38-.57,3.26-1.42,4.55-2.6,1.6-1.46,2.56-4.58,2.02-6.64-.51-1.97-2.3-3.56-4.38-3.86-2.18-.32-4.62.66-5.88,2.6-.9,1.38-.68,3.38-.67,4.22.02,1.52-.87,2.13-1.78,2.11-.95-.02-1.92-.72-1.92-1.77.03-3.2,1.12-5.59,2.73-7.19,3.41-3.37,8.76-3.22,12.09-.54,1.9,1.53,3.16,4.02,2.95,6.83-.8,10.62-19.95,12.39-27.46,12.59-.92-.02-1.38-.3-1.4-1.33-.06-2.46,1.65-5.22,3.45-8.15,2.32-3.78,5.82-9.23,3.02-13.63-.29-.46-.64-.87-1.03-1.23-.42.43-1.03,1.07-1.69,1.89-.85,1.09-1.63,2.29-2.33,3.65-.23.44-.43.85-.6,1.23-.3.79-.54,1.62-.66,2.48.29,0,.58.03.88.06,1.05.1,2.74.26,3.07,1.55.4,1.56-3.85,1.22-5-.21-.21-.26-.35-.56-.41-.93-1.07.08-2.05.3-2.9.64-1.48.58-2.6,1.49-3.19,2.62-.88,1.66.25,2.59,1.57,3.67,1.92,1.58,4.21,3.47,2.06,8.15-.09.19-.31.56-.5.65-.27.13-.59.02-.91-.64-1.17-6.84-21.97-17.71-14.73-23.01,2.33-1.93,7.93-2.86,9.9-4.5l.37-.27c-.36-.18-.95-.48-1.57-.85-.38.3-.73.58-1.13.86-.56.38-1.45.45-3.11-.03-.19-.06-2.31-.93-2.35-1.17-.05-.28,1.13-.64,1.43-.75-.12.02-4.41.71-4.88.39-.12-.08-.14-.18-.07-.31.17-.28,4.19-.84,4.99-.97-.7-.02-1.69-.02-2.65-.03-1.48,0-2.88-.02-3.12-.13-1.06-.51,1.77-.67,1.86-.67-.66-1.08-1.02-2.35-.8-3.77.16-1.05.64-2.18,1.55-3.37-.12,0-.25-.04-.39-.1-.35-.16-.74-.52-1.2-1.16-1.03-1.43-1.56-2.55-1.74-3.41-.13-.63-.07-1.13.13-1.52.2-.39.54-.66.97-.81.73-.26,2.47-.18,3.21.01,1,.26,2.01.82,2.65,1.54.51.57.79,1.25.68,1.97.22-.06.45-.11.69-.14.38-.05.78-.06,1.22-.03,1.15-.1,2.61.12,4.49.9-.03-.05-.05-.1-.07-.14-.14-.3-.15-.58,0-.84.83-1.36,1.56-2.25,2.19-2.76,1.2-.94,2.34-.88,3.12-.41.74.45,1.16,1.64,1.25,2.91.09,1.25-.12,2.59-.62,3.37-.4.62-.96.92-1.69.62-.04.02-.47-.31-.52-.3-.04.01.31.37.26.38,1.12,1.63,1.8,3.79.13,6.68-.13.22-.7.3-.84.32.23-.01.77,0,1.2,0,.21,0,1.11-.07,1.22.13h0c.08.15.03.24-.1.32-.34.18-3.54.36-4.31.38,1.16.06,3.17.01,4.15.26.17.04.26.19.16.35-.15.25-3.17.17-3.56.16l.26.04c3.77.57,1.94,1.14-.44.89-.35.36-.71.7-1.08,1.03.64.03,1.41.02,2.26.02,3.33-.01,7.83-.03,10.99,1.69,1.09-1,2.24-1.89,3.42-2.7,1.88-1.29,3.69-2.37,5.76-3.31,8.29-3.77,14.26-7.99,16.92-17.37.13-.45.22-.91.28-1.36v-.1c-.28.72-.62,1.45-1.01,2.2-1.43,2.7-3.41,5.25-5.56,7.38h0c-.34.34-.69.67-1.04.99h0s-.01.02-.01.02l-.06.06-.06.05h0s0,.01,0,.01c-.68.63-1.55,1.41-2.72,2.33-1.17.92-2.64,1.97-4.53,3.13-.1.06-.24.03-.3-.07-.06-.1-.03-.24.07-.3l.08-.05c1.1-.98,2.18-1.91,3.15-2.76.99-.86,1.99-1.72,2.96-2.61.69-.62,5.54-5.32,7.66-8.38h0ZM65,39.83s-.03,0-.04,0c-1.45.16-2.13,1.15-2.5,2.4.71.24,1.73.04,2.64-.32,1.09-.44,2-1.12,2-1.59,0-.29-.47-.5-1.69-.51-.14,0-.28,0-.41.02h0ZM51.1,5.02c.12.72.09,1.46-.17,2.15.84.08,2.16-.03,2.59-.88-.96-.14-1.81-.48-2.42-1.26ZM81.95,25.39c-.62-5.21-2.2-7.44-5.18-10.95-2.81-3.31-5.92-5.48-9.47-7.2-1.71-.65-10.3-3.97-9.57-1.26,3.27.15,5.94.89,8.87,2.32,2.89,1.43,5.93,3.48,8.54,5.92.75.7,1.46,1.43,2.12,2.19v.02c2.31,2.64,4.05,5.48,4.68,8.95h0ZM67.04,12.05c0,.15.03.33.12.54.02-.29.02-.5-.03-.62-.05-.12-.09,0-.09.08h0ZM22.44,17.63c-.25,1.12-1.44,4.11-.38,4.97h0s0,0,0,0c1.05.81,3.26-.44,4.07-.99.48-.32.95-.7,1.39-1.12-.08-.16-.15-.31-.22-.46-1.22-2.55-2.29-2.53-4.88-2.41ZM28.15,19.02c.11.15.23.31.33.48.46-.55.86-1.15,1.17-1.77,1.21-2.44.92-5.25-3.08-7.24-5.24-2.6-8.17-2.3-10.09-.86,3.36-1.35,5.08-.65,5.89.89.91,1.73.59,4.54.16,6.66,1.36-.07,2.54-.25,3.89.33.69.29,1.31.77,1.73,1.51h0ZM21.07,17.24c.26-1.16.51-2.6.56-3.96.19-4.78-1.94-4.77-6.11-2.74,0,0-.01.01-.02.02-.05.05-.09.1-.14.15-.79.94-1.39,2.08-1.97,3.19-.14.27-.29.55-.43.82l.02.03h0s.02.03.02.03l.08-.05c.57-.31,1.7-.87,3.14-.97.99-.08,1.82.21,1.89,1.13.11.98-.42,1.59-1.48,1.71-.29.03-.6.03-.93-.02h0s0,0,0,0h0c-.5-.07-1.03-.23-1.52-.45-.29-.13-.56-.29-.82-.46-.02.07-.04.13-.05.2v.02c0,.25.22.51.76.74.62.26,1.63.47,3.15.57,1.24.08,2.58.09,3.83.05h0ZM14.25,14.85c-.24.14-.45.3-.61.46.23.16.48.3.74.42.63.29,1.6.68,2.13.01.15-.19.22-.45.18-.8v-.02c-.02-.2-.09-.35-.2-.45-.54-.54-1.72.07-2.25.39h0ZM3.71,22.03c-.51.19-.79.73.04,1.74.32.34.76.74,1.36,1.19.13-.11.27-.22.43-.32.45-.29.72-.57.85-.83.11-.22.1-.42.02-.6-.09-.2-.27-.39-.5-.56-.49-.35-1.6-.79-2.2-.62h0ZM4.8,25.27c-.39-.3-.72-.59-.99-.85.06.69.15,1.38.26,2.07.16-.45.41-.86.73-1.22h0ZM4.4,28.26c.52,2.39,1.25,4.7,2.15,6.97,1.71,4.27,5.16,9.04,8.42,12.27.15.15.4.34.71.57-2-9.72-2.39-15.93,5.52-22.14-5.49.19-9.29,4.46-12.02,1.92-1.9-1.3-2.35,1.16-3.5,1.03-.45-.05-.97-.26-1.28-.61h0ZM16.52,50.05c.39,1.86,1.71,3.02,2.78,3.45.47.19.88.24,1.11.14,1.08-.45-3.18-3.16-3.59-3.41l-.3-.18h0ZM41.93,10.77c.2.32.36.64.5.97.05,0,.09,0,.14,0,1.01.03,2.93-.67,6.03-2.65-.27-.41-.68-1.05-1.1-1.72-2.18.21-3.95,1.31-4.9,2.38-.26.3-.51.64-.66,1.02ZM42.6,12.18c.42,1.26.38,2.53-.17,3.71-.63,1.36-1.94,2.59-4,3.54-1.14.53-2,1.12-2.63,1.75-1.97,1.94-2.13,5.02-.17,7,.92.93,1.83,1.37,2.74,1.48,1.61-.22,3.24-1.33,4.89-2.47,1.89-1.3,3.82-2.61,5.86-2.71,1.93-.09,3.54-.66,4.78-1.49,1-.67,1.75-1.5,2.25-2.39.49-.88.73-1.81.69-2.69-.08-1.69-1.66-3.48-2.92-4.48-.72-.57-1.41-.92-2.06-1.1.13.37.22.72.26,1.05.14,1.21-.4,2.07-2.13,2.27-1.04.12-3.28.19-2.99-1.42.24-1.37,1.88-2.31,3.15-2.47-.37-.8-.83-1.57-1.3-2.31-3.14,2.02-5.15,2.73-6.24,2.72h0ZM48.42,14.38c-.1.87.88.91,1.51.84,1.41-.17,1.85-.84,1.74-1.79-.04-.38-.17-.79-.35-1.24-1.13.12-2.75.94-2.9,2.19ZM49.64,8.33c.26-.25.47-.51.63-.79-.42-.05-.84-.14-1.26-.18.21.32.42.64.63.96h0ZM48.71,6.9c.6.03,1.17.15,1.77.22.09-.22.15-.44.19-.67.19-1.09-.14-2.25-.69-3.22-.45-.8-1.41-2.32-2.56-2.06h0c-1.94.45.24,4.04.83,4.99.15.25.31.5.46.74h0ZM51.06.74c-.35.37.19,1.73.2,1.76.44,1.17,1.15,2.68,2.43,3.13.37-1.81-.24-2.73-1.03-3.83-.2-.27-1.18-1.5-1.6-1.05h0ZM35.46,63.73c.6.72,1.14,1.36,1.66,1.98,2.3,2.72,4.06,4.81,5.99,7.94.94,1.47,1.88,3.09,2.88,5,1.59-3.97-.45-5.66-2.17-7.08-1.47-1.21-2.72-2.24-1.68-4.22.65-1.22,1.84-2.21,3.43-2.82.91-.35,1.94-.58,3.07-.67.4-2.17,1.2-4.09,2.18-5.72,1.09-1.83,2.4-3.3,3.59-4.35-3.01-1.61-7.05-1.89-10.25-1.88-1.05,0-1.99,0-2.73-.05-1.11.95-2.05,1.51-3.43,2.16-3.06,1.45-5.94,2.98-4.62,6.44.47,1.24,1.27,2.26,2.1,3.27h0ZM50.07,64.28c.18.95,1.32,1.51,2.22,1.67h.02c.39.07.74.06.99-.02.17-.06.36-.16.31-.37-.27-1.05-1.85-1.15-2.69-1.23-.29-.03-.57-.05-.85-.06h0s0,0,0,0ZM42.34,49.81c-1.06-.16-1.55-.25-1.66-.39h0c-.09-.13-.07-.23.06-.32.04-.03.08-.04.13-.04h0c-.31-.04-.48-.14-.46-.31h0c.02-.21.36-.21.55-.24-.4-.21.07-.37.2-.43.59-.19,1.92-.42,2.85-.58.11-.02.22-.05.26-.11,1.78-3,1.52-5.22-.61-7.59h0l-.15-.09-.15-.09c-5.58-3.15-8.03-2.06-9.49-.73-.71.69-1.49,1.4-2.08,2.18v.02s-.01,0-.01,0l-.04.05-.02.03c-.44.59-.81,1.22-1.07,1.91h0s-.02.04-.02.04h0c-.37,1.01-.47,2.04-.27,3.02.11.57.33,1.13.64,1.67.58.03,4.96-.14,4.92.42-.01.2-.26.2-.4.21.24.04.62.18.36.44.16-.01.54-.07.61.17h0s0,0,0,0c.09.43-2.22,1.35-2.78,1.22,2.31.91,3.4.78,4.26-.05-.54-.48-1.37-1.45-.45-2.02.35-.22.92-.29,1.34-.23,1.67.24.95,1.72.16,2.5.55.37,1.02.57,1.67.87.44-.31,1.47-1.35,1.64-1.53h0ZM43.94,39.45c.55.36.97.62,1.52.91.53.23.93.02,1.22-.42.45-.7.64-1.94.55-3.1-.09-1.14-.43-2.2-1.04-2.57-.24-.15-.53-.18-.86-.07-.02.02-.04.03-.07.04-.37.15-.79.46-1.27.98-.39.43-.82.99-1.27,1.71-.09.15-.27.36-.28.53,0,.28.28.63.44.83h0s.08.09.08.09h0c.05.06.11.13.17.19h0s.82.88.82.88h0ZM33.61,38.54c1.02-1.06.84-2.1.14-2.89-.58-.66-1.51-1.17-2.44-1.41-.68-.18-1.7-.28-2.33.17-.18.13-.33.31-.41.55-.09.24-.11.55-.05.92.06.41,1.79,4.53,3.03,4.47.38-.04,1.65-1.43,2.05-1.8h0ZM37.76,48.57c-.57.35.23,1.08.51,1.33.2-.24.48-.62.51-.93.05-.48-.69-.61-1.02-.39Z"/>
  <path class="st0" d="M107.12,13.6l1.46,5.09c.1.34.21.73.3,1.15.1.43.19.84.26,1.22h.03c.07-.38.16-.8.27-1.22.11-.43.22-.81.32-1.15l1.5-5.09h.91l1.54,5.09c.1.34.21.73.32,1.15.1.43.19.82.29,1.22h.03c.07-.4.16-.81.26-1.24.1-.43.21-.8.3-1.14l1.4-5.09h1l-2.49,8.65h-1l-1.5-5.19c-.1-.38-.21-.76-.32-1.13-.11-.37-.21-.73-.29-1.07h-.03c-.07.32-.15.62-.23.92-.08.3-.16.6-.25.91l-1.55,5.56h-.99l-2.55-8.65h1.02Z"/>
  <path id="_1" class="st0" d="M119.61,22.25h-.96v-9.75h.96v4.15c.3-.26.63-.49,1-.67.37-.18.77-.26,1.21-.26.36,0,.67.06.93.15.26.11.48.26.66.44.16.19.29.41.38.66.08.26.12.54.12.84v4.45h-.96v-4.19c0-.56-.12-.96-.36-1.21-.25-.23-.59-.36-1.03-.36-.32,0-.65.08-.97.25-.34.16-.67.4-.99.69v4.82h0Z"/>
  <path id="_2" class="st0" d="M126.09,16.37c.43-.23.82-.4,1.19-.51.36-.1.76-.15,1.19-.15.33,0,.63.04.92.11.27.08.52.22.73.4.21.18.36.43.48.71.11.3.16.67.16,1.11v4.2h-.74l-.15-.78h-.03c-.27.32-.59.55-.93.69-.36.15-.74.22-1.17.22-.3,0-.58-.04-.84-.14-.26-.08-.49-.21-.67-.37-.19-.16-.34-.36-.44-.59-.11-.23-.16-.48-.16-.77,0-.34.07-.63.21-.89.14-.26.33-.47.59-.65.25-.18.55-.3.91-.4.34-.08.74-.12,1.17-.12h1.3v-.48c0-.55-.12-.93-.38-1.15-.26-.21-.59-.32-1.02-.32-.26,0-.55.04-.87.11-.33.08-.69.23-1.08.45l-.37-.69h0ZM129.81,19.14h-1.07c-.76.03-1.3.16-1.62.41s-.48.55-.48.91c0,.43.14.73.4.91.26.18.58.26.95.26.32,0,.65-.08.97-.23.33-.15.62-.4.85-.74v-1.51h0Z"/>
  <path id="_3" class="st0" d="M136.37,16.52h-2.03v4c0,.37.1.63.27.76.18.12.41.19.7.19.23,0,.45-.03.67-.07.22-.04.41-.1.58-.15l.15.73c-.18.07-.41.14-.69.19-.27.06-.58.08-.89.08-1.17,0-1.76-.54-1.76-1.61v-4.12h-1.06v-.73h1.06v-2.06h.96v2.06h2.03v.73h0Z"/>
  <path id="_4" class="st0" d="M141.32,22.25v-6.45h.96v6.45h-.96ZM141.8,14.13c-.18,0-.33-.06-.45-.18-.12-.12-.19-.27-.19-.47s.07-.36.19-.48.27-.18.45-.18c.16,0,.32.06.45.18.12.12.19.27.19.48s-.07.36-.19.47c-.12.12-.27.18-.45.18Z"/>
  <path id="_5" class="st0" d="M148.07,16.81c-.26-.12-.52-.22-.76-.27-.25-.06-.51-.08-.77-.08-.47,0-.81.1-1.04.27-.23.18-.34.43-.34.71,0,.26.1.47.27.62.18.15.51.3,1,.45l.41.12c.56.18,1,.41,1.3.7.29.29.44.67.44,1.14,0,.55-.21,1-.62,1.36-.41.36-1,.54-1.77.54-.41,0-.8-.03-1.14-.1-.34-.08-.65-.18-.91-.3l.25-.76c.25.12.51.22.8.29.29.07.59.11.93.11.47,0,.84-.1,1.1-.27s.38-.44.38-.78c0-.29-.1-.52-.3-.7-.21-.16-.55-.32-1-.47l-.44-.14c-.56-.18-.99-.41-1.26-.7-.27-.27-.41-.63-.41-1.06,0-.26.06-.51.16-.73.11-.22.26-.41.47-.56.21-.15.44-.27.71-.37.26-.08.56-.12.89-.12.3,0,.62.03.95.08.33.05.63.15.92.27l-.23.74h0Z"/>
  <path class="st0" d="M209.22,38.65c-4.9,0-8.39,6.12-9.28,11.95-.57,1.88-3.61,11.82-6.35,11.82-1.92,0-3.02-4.57-3.47-10.38,3.43-6.31,6.08-14.45,6.08-19.43,0-2.93-.82-5.03-3.06-5.03-4.21,0-6.08,8.14-6.08,16.64,0,3.34.27,6.72.82,9.69-2.15,3.47-4.43,5.85-6.54,5.85-1.65,0-2.29-2.19-2.29-5.03,0-5.44,2.38-13.3,5.21-13.3,1.1,0,1.51.87,1.37,2.47,0,.23.27.32.46.32s.41-.14.41-.41c.14-1.87-.55-3.43-2.7-3.43-3.87,0-6.57,5.11-7.27,10.22-.52,1.81-2.89,10.49-8.5,10.49-3.15,0-4.39-3.57-4.39-7.77,0-.41,0-.78.05-1.19,4.8-1.37,7.95-6.58,7.95-10.19,0-2.01-1.01-3.52-3.29-3.52-4.32,0-7.09,6.2-7.38,12.24-.66,2.24-2.53,9.11-6.15,9.11-1.6,0-2.29-1.51-2.29-3.52,0-3.11,1.37-10.11,1.37-12.71,0-4.71-4.57-4.85-7.96-5.76v-.27c0-3.43-.82-5.67-2.93-5.67-1.37,0-2.15,1.1-2.15,2.42,0,2.6,1.83,3.57,3.98,4.16-.09,3.24-.82,7.62-2.05,12h0s0,.02,0,.02h0s0,.02,0,.02h0s0,.03,0,.03c-.3,1.07-3.46,11.94-6.94,11.94-2.01,0-2.7-2.47-2.7-5.76s.69-7.59,1.42-11.02c.23-1.1-.64-1.51-1.33-1.51-.78,0-1.69.27-2.01,2.51-.37,2.56-.6,5.03-.6,7.27,0,2,.18,3.81.58,5.3-.95,2.04-3.92,2.3-6.22,2.14l-.2-.02c.17-.67.26-1.37.26-2.07,0-5.3-5.81-6.31-10.79-7.68-4.94-1.37-6.77-3.34-6.77-7.5,0-7.41,6.03-15.04,13.03-15.04,4.25,0,5.71,2.51,5.71,5.44,0,3.93-2.61,8.69-4.39,9.33,0,.5.32.87.87.87,1.83,0,4.89-5.26,4.89-9.87,0-3.61-1.87-6.81-7.54-6.81-9.24,0-15.68,7.77-15.68,15.59,0,5.72,3.98,7.68,9.37,9.24,4.8,1.37,8,2.74,8,6.67,0,.45-.03.89-.09,1.32-3.84-.86-8.12-2.3-11.19-1.61-2.55.48-4.13,3.22-4.13,5.69s1.69,5.08,5.99,5.08c5.56,0,10.74-3.41,12.26-7.97,2.4.29,4.72.12,6.59-1.72l.27-.27c.77,2.15,2.13,3.47,4.29,3.47,4.68,0,7.76-11.77,8.08-12.98h0s0-.02,0-.02v-.02s0-.02,0-.02h0s0-.02,0-.02c1.09-4.2,1.92-8.35,2.05-11.69,2.56.64,5.17,1.23,5.17,4.02,0,3.47-1.19,8.09-1.19,11.61s1.14,6.45,4.8,6.45c3.31,0,5.28-3.84,6.37-6.94.48,4.53,2.54,8.27,6.7,8.27,4.68,0,7.28-4.37,8.64-7.81.26,3.6,1.75,6.48,4.85,6.48,2.01,0,4.16-1.87,6.26-4.71.14-.18.32-.41.5-.41s.27.18.32.46c1.05,4.21,2.83,7.31,5.26,7.31s4.8-5.07,6.16-8.91c.26,3.55,1.79,6.26,4.94,6.26,2.56,0,4.48-2.51,5.81-5.35.14-.32.32-.55.55-.55s.37.32.37.73c.14,4.98,1.46,7.82,4.48,7.82,4.48,0,7.52-10.57,8.1-12.7.1,4.36.53,9.78,2.37,9.78.32,0,1.19-.27,1.19-.82,0-7.04,2.97-24.87,8.32-24.87,1.65,0,2.24,1.83,2.24,4.53,0,4.34-1.51,10.97-2.47,16.09-.14.73.73,1.69,2.24,1.69.32,0,.55-.14.59-.27,1.6-4.62,5.3-16.73,8.41-16.73.87,0,1.19.82,1.19,2.15,0,3.61-1.51,11.52-1.51,16.37,0,3.57,1.19,5.9,4.16,5.9,4.62,0,7.95-10.88,8.96-14.13.05-.18-.18-.23-.46-.23s-.55.05-.6.23c-1.01,3.25-4.3,13.08-7.77,13.08-.96,0-1.55-1.28-1.55-3.29,0-4.25,1.37-12.12,1.37-16.73,0-2.74-.78-4.53-3.25-4.53s-4.85,3.84-6.54,8c-.23.6-.41,1.01-.64,1.01s-.27-.32-.14-1.1c.27-1.83.41-3.57.41-5.17,0-4.57-1.19-7.91-4.57-7.91-4.3,0-7.04,8.23-8.41,15.91-.09.5-.23,1.33-.55,1.33s-.46-.55-.46-1.42c0-3.15.5-5.17.5-5.53,0-.69-.41-1.05-1.23-1.05-1.14,0-1.55,1.05-1.74,2.1-.23,1.19-.5,3.28-1.05,5.29h0s0,.02,0,.02c-.23.82-3.47,11.98-6.99,11.98-1.51,0-2.06-1.51-2.06-4.39,0-3.47,1.01-10.33,1.01-10.56,0-1.1-.64-1.51-1.33-1.51-.78,0-1.46.27-1.97,2.51-.37,1.65-2.6,11.29-6.9,11.29-1.65,0-2.38-2.01-2.38-4.71,0-5.94,3.34-15.36,7.27-15.36,2.06,0,2.47,2.15,2.47,3.75,0,.82-.14,1.42-.14,1.55,0,.23.27.32.46.32s.37-.14.41-.41c.05-.23.18-.96.18-1.83,0-1.87-.6-4.43-3.84-4.43h0ZM121.56,61.48c-.87,4.13-4.43,7.34-9.53,7.34-3.29,0-4.62-1.74-4.62-3.61s1.27-3.87,3.12-4.63c.28-.09.55-.17.82-.24,3.98-.73,6.36.38,10.21,1.14h0ZM169.08,39.61c.82,0,1.19.78,1.19,1.92,0,2.88-2.38,8-6.54,9.55.55-5.62,2.83-11.48,5.35-11.48ZM189.84,45.14c0-8.32,1.19-16.5,3.7-16.5,1.1,0,1.56,1.42,1.56,3.43,0,4.43-2.2,11.93-5.12,18.01-.09-1.6-.14-3.29-.14-4.94h0Z"/>
</svg>